<svg width="26" height="26" viewBox="0 0 26 26" fill="none" xmlns="http://www.w3.org/2000/svg">
<path d="M10.2917 10.8333C10.7896 10.8333 11.2826 10.7353 11.7427 10.5447C12.2027 10.3542 12.6207 10.0749 12.9728 9.72278C13.3249 9.37069 13.6042 8.9527 13.7947 8.49268C13.9853 8.03265 14.0833 7.5396 14.0833 7.04167C14.0833 6.54374 13.9853 6.05068 13.7947 5.59066C13.6042 5.13063 13.3249 4.71264 12.9728 4.36055C12.6207 4.00846 12.2027 3.72917 11.7427 3.53862C11.2826 3.34807 10.7896 3.25 10.2917 3.25C9.28605 3.25 8.32163 3.64948 7.61055 4.36055C6.89948 5.07163 6.5 6.03605 6.5 7.04167C6.5 8.04728 6.89948 9.0117 7.61055 9.72278C8.32163 10.4339 9.28605 10.8333 10.2917 10.8333Z" stroke="white" stroke-width="2" stroke-linejoin="round"/>
<path d="M19.5 15.7083V22.2083M16.25 18.9583H22.75M14.625 15.1667H10.1833C7.75667 15.1667 6.54333 15.1667 5.616 15.639C4.80067 16.0544 4.13778 16.7173 3.72233 17.5327C3.25 18.46 3.25 19.6733 3.25 22.1V22.75H14.625" stroke="white" stroke-width="2" stroke-linecap="round" stroke-linejoin="round"/>
</svg>
