<svg width="25" height="25" viewBox="0 0 25 25" fill="none" xmlns="http://www.w3.org/2000/svg">
<g id="mdi:settings">
<path id="Vector" d="M12.5 16.1458C11.5331 16.1458 10.6057 15.7617 9.92201 15.078C9.23828 14.3943 8.85417 13.4669 8.85417 12.5C8.85417 11.5331 9.23828 10.6057 9.92201 9.92202C10.6057 9.23829 11.5331 8.85418 12.5 8.85418C13.4669 8.85418 14.3943 9.23829 15.078 9.92202C15.7617 10.6057 16.1458 11.5331 16.1458 12.5C16.1458 13.4669 15.7617 14.3943 15.078 15.078C14.3943 15.7617 13.4669 16.1458 12.5 16.1458ZM20.2396 13.5104C20.2812 13.1771 20.3125 12.8438 20.3125 12.5C20.3125 12.1563 20.2812 11.8125 20.2396 11.4583L22.4375 9.76043C22.6354 9.60418 22.6875 9.32293 22.5625 9.09376L20.4792 5.4896C20.3542 5.26043 20.0729 5.16668 19.8438 5.26043L17.25 6.3021C16.7083 5.89585 16.1458 5.54168 15.4896 5.28126L15.1042 2.52085C15.083 2.39815 15.0191 2.28692 14.9238 2.20684C14.8284 2.12676 14.7078 2.08301 14.5833 2.08335H10.4167C10.1562 2.08335 9.9375 2.27085 9.89583 2.52085L9.51042 5.28126C8.85417 5.54168 8.29167 5.89585 7.75 6.3021L5.15625 5.26043C4.92708 5.16668 4.64583 5.26043 4.52083 5.4896L2.4375 9.09376C2.30208 9.32293 2.36458 9.60418 2.5625 9.76043L4.76042 11.4583C4.71875 11.8125 4.6875 12.1563 4.6875 12.5C4.6875 12.8438 4.71875 13.1771 4.76042 13.5104L2.5625 15.2396C2.36458 15.3958 2.30208 15.6771 2.4375 15.9063L4.52083 19.5104C4.64583 19.7396 4.92708 19.8229 5.15625 19.7396L7.75 18.6875C8.29167 19.1042 8.85417 19.4583 9.51042 19.7188L9.89583 22.4792C9.9375 22.7292 10.1562 22.9167 10.4167 22.9167H14.5833C14.8438 22.9167 15.0625 22.7292 15.1042 22.4792L15.4896 19.7188C16.1458 19.4479 16.7083 19.1042 17.25 18.6875L19.8438 19.7396C20.0729 19.8229 20.3542 19.7396 20.4792 19.5104L22.5625 15.9063C22.6875 15.6771 22.6354 15.3958 22.4375 15.2396L20.2396 13.5104Z" fill="black"/>
</g>
</svg>
