<svg width="29" height="29" viewBox="0 0 29 29" fill="none" xmlns="http://www.w3.org/2000/svg">
<path fill-rule="evenodd" clip-rule="evenodd" d="M19.3333 12.5667C19.3333 13.4553 19.1583 14.3352 18.8183 15.1562C18.4782 15.9771 17.9798 16.7231 17.3514 17.3514C16.7231 17.9798 15.9771 18.4782 15.1562 18.8183C14.3352 19.1583 13.4553 19.3333 12.5667 19.3333C11.6781 19.3333 10.7981 19.1583 9.97717 18.8183C9.1562 18.4782 8.41025 17.9798 7.78191 17.3514C7.15357 16.7231 6.65514 15.9771 6.31508 15.1562C5.97502 14.3352 5.8 13.4553 5.8 12.5667C5.8 10.7721 6.51291 9.05092 7.78191 7.78193C9.05091 6.51293 10.772 5.80001 12.5667 5.80001C14.3613 5.80001 16.0824 6.51293 17.3514 7.78193C18.6204 9.05092 19.3333 10.7721 19.3333 12.5667ZM17.9974 19.3643C16.2601 20.7522 14.0574 21.4222 11.8415 21.2368C9.62569 21.0514 7.56495 20.0245 6.08254 18.3672C4.60012 16.7098 3.80858 14.5477 3.87045 12.325C3.93233 10.1023 4.84294 7.98759 6.41526 6.41527C7.98757 4.84295 10.1023 3.93235 12.325 3.87047C14.5477 3.80859 16.7098 4.60014 18.3671 6.08255C20.0245 7.56496 21.0513 9.6257 21.2368 11.8416C21.4222 14.0574 20.7522 16.2602 19.3643 17.9974L24.8511 23.4823C24.9409 23.5722 25.0122 23.6789 25.0609 23.7963C25.1095 23.9137 25.1346 24.0396 25.1346 24.1667C25.1346 24.2938 25.1095 24.4196 25.0609 24.5371C25.0122 24.6545 24.9409 24.7612 24.8511 24.8511C24.7612 24.941 24.6545 25.0123 24.5371 25.0609C24.4196 25.1095 24.2938 25.1346 24.1667 25.1346C24.0396 25.1346 23.9137 25.1095 23.7963 25.0609C23.6788 25.0123 23.5721 24.941 23.4823 24.8511L17.9993 19.3643H17.9974Z" fill="black" fill-opacity="0.5"/>
</svg>
