<svg width="29" height="29" viewBox="0 0 29 29" fill="none" xmlns="http://www.w3.org/2000/svg">
<g id="radix-icons:plus">
<path id="Vector" fill-rule="evenodd" clip-rule="evenodd" d="M15.4668 5.31667C15.4668 5.0603 15.3649 4.81442 15.1836 4.63314C15.0023 4.45185 14.7565 4.35001 14.5001 4.35001C14.2437 4.35001 13.9978 4.45185 13.8166 4.63314C13.6353 4.81442 13.5334 5.0603 13.5334 5.31667V13.5333H5.31676C5.06039 13.5333 4.81451 13.6352 4.63323 13.8165C4.45194 13.9978 4.3501 14.2436 4.3501 14.5C4.3501 14.7564 4.45194 15.0023 4.63323 15.1835C4.81451 15.3648 5.06039 15.4667 5.31676 15.4667H13.5334V23.6833C13.5334 23.9397 13.6353 24.1856 13.8166 24.3669C13.9978 24.5482 14.2437 24.65 14.5001 24.65C14.7565 24.65 15.0023 24.5482 15.1836 24.3669C15.3649 24.1856 15.4668 23.9397 15.4668 23.6833V15.4667H23.6834C23.9398 15.4667 24.1857 15.3648 24.367 15.1835C24.5483 15.0023 24.6501 14.7564 24.6501 14.5C24.6501 14.2436 24.5483 13.9978 24.367 13.8165C24.1857 13.6352 23.9398 13.5333 23.6834 13.5333H15.4668V5.31667Z" fill="white"/>
</g>
</svg>
