<svg width="29" height="29" viewBox="0 0 29 29" fill="none" xmlns="http://www.w3.org/2000/svg">
<g clip-path="url(#clip0_1_50)">
<path fill-rule="evenodd" clip-rule="evenodd" d="M20.5418 4.83334C21.4637 4.83334 22.2262 5.35776 22.7844 5.90876C23.3657 6.4803 23.8985 7.2488 24.3722 8.09584C25.3232 9.79476 26.1509 12.0145 26.6982 14.2076C27.242 16.3838 27.5429 18.6567 27.3507 20.4438C27.1574 22.2382 26.233 24.1667 24.1668 24.1667C22.3833 24.1667 20.9623 23.2483 19.7999 22.3167L19.3757 21.9675L18.7812 21.466L18.2447 21.0214C17.0134 20.0245 15.9199 19.3333 14.5001 19.3333C13.0803 19.3333 11.9868 20.0245 10.7555 21.0214L10.219 21.466L9.62449 21.9675L9.20157 22.3167C8.03673 23.2483 6.61573 24.1667 4.83344 24.1667C2.76598 24.1667 1.84161 22.2382 1.64948 20.4438C1.45857 18.6555 1.75823 16.3838 2.30198 14.2064C2.84936 12.0145 3.67707 9.79597 4.62803 8.09463C5.10169 7.2488 5.63457 6.4803 6.21578 5.90755C6.77403 5.35776 7.53648 4.83334 8.45844 4.83334C9.08073 4.83334 9.68853 4.98197 10.2867 5.15959L11.002 5.3783C11.1216 5.41455 11.24 5.4508 11.3584 5.48343C12.4037 5.78309 13.473 6.04168 14.5001 6.04168C15.5272 6.04168 16.5966 5.78309 17.6418 5.48343L18.7112 5.1608C19.3129 4.98318 19.9255 4.83334 20.5418 4.83334ZM20.5418 7.25001C20.079 7.25001 19.5957 7.39018 19.1268 7.54364L18.5734 7.72609C18.4848 7.7549 18.3958 7.78229 18.3064 7.80826C17.237 8.11276 15.8897 8.45834 14.5001 8.45834C13.1105 8.45834 11.7632 8.11276 10.6939 7.80826L10.428 7.72609L9.8734 7.54364C9.40457 7.38897 8.92123 7.25001 8.45844 7.25001C7.95336 7.34426 7.50023 7.95688 7.15828 8.5248L6.96736 8.85709L6.73778 9.27518C5.91369 10.7469 5.15486 12.7552 4.64736 14.7924C4.17007 16.698 3.93807 18.5225 4.02628 19.8807L4.05769 20.2348L4.08186 20.4474L4.11811 20.6988C4.20148 21.1833 4.38153 21.75 4.83344 21.75C5.81461 21.75 6.63386 21.2618 7.65248 20.4523L8.13944 20.0559L9.05778 19.2874L9.47344 18.9491C10.7591 17.9305 12.3674 16.9167 14.5001 16.9167C16.6328 16.9167 18.2411 17.9317 19.5268 18.9491L19.9437 19.2874L20.862 20.0559L21.3477 20.4523C22.3664 21.2618 23.1844 21.75 24.1668 21.75C24.5776 21.75 24.7637 21.2824 24.8567 20.8329L24.9027 20.5695L24.9474 20.1864C25.096 18.8017 24.8664 16.8454 24.3541 14.7936C23.8877 12.9256 23.211 11.0816 22.4667 9.65338L22.0329 8.85589L21.8419 8.52601C21.5 7.95689 21.0469 7.34426 20.5418 7.25001ZM10.2709 9.66668C11.0721 9.66668 11.8405 9.98494 12.407 10.5515C12.9735 11.118 13.2918 11.8863 13.2918 12.6875C13.2918 13.4887 12.9735 14.257 12.407 14.8236C11.8405 15.3901 11.0721 15.7083 10.2709 15.7083C9.46977 15.7083 8.70141 15.3901 8.13489 14.8236C7.56837 14.257 7.25011 13.4887 7.25011 12.6875C7.25011 11.8863 7.56837 11.118 8.13489 10.5515C8.70141 9.98494 9.46977 9.66668 10.2709 9.66668ZM18.7293 9.66668C19.0252 9.66672 19.3109 9.77537 19.5321 9.97204C19.7532 10.1687 19.8945 10.4397 19.9292 10.7336L19.9376 10.875V11.4792H20.5418C20.8498 11.4795 21.146 11.5974 21.3699 11.8089C21.5939 12.0203 21.7286 12.3092 21.7467 12.6167C21.7647 12.9241 21.6647 13.2269 21.467 13.4631C21.2694 13.6992 20.989 13.851 20.6832 13.8874L20.5418 13.8958H19.9376V14.5C19.9373 14.808 19.8193 15.1042 19.6079 15.3282C19.3965 15.5521 19.1075 15.6869 18.8001 15.7049C18.4926 15.723 18.1899 15.6229 17.9537 15.4253C17.7176 15.2276 17.5658 14.9472 17.5294 14.6414L17.5209 14.5V13.8958H16.9168C16.6088 13.8955 16.3126 13.7776 16.0886 13.5662C15.8647 13.3547 15.7299 13.0658 15.7119 12.7583C15.6938 12.4509 15.7938 12.1481 15.9915 11.912C16.1892 11.6758 16.4696 11.524 16.7754 11.4876L16.9168 11.4792H17.5209V10.875C17.5209 10.5545 17.6482 10.2472 17.8749 10.0206C18.1015 9.79398 18.4088 9.66668 18.7293 9.66668ZM10.2709 12.0833C10.1107 12.0833 9.95704 12.147 9.84373 12.2603C9.73043 12.3736 9.66678 12.5273 9.66678 12.6875C9.66678 12.8477 9.73043 13.0014 9.84373 13.1147C9.95704 13.228 10.1107 13.2917 10.2709 13.2917C10.4312 13.2917 10.5849 13.228 10.6982 13.1147C10.8115 13.0014 10.8751 12.8477 10.8751 12.6875C10.8751 12.5273 10.8115 12.3736 10.6982 12.2603C10.5849 12.147 10.4312 12.0833 10.2709 12.0833Z" fill="#F1F3F4"/>
</g>
<defs>
<clipPath id="clip0_1_50">
<rect width="29" height="29" fill="white"/>
</clipPath>
</defs>
</svg>
