<svg width="29" height="29" viewBox="0 0 29 29" fill="none" xmlns="http://www.w3.org/2000/svg">
<g id="simple-line-icons:people">
<path id="Vector" d="M20.2126 22.3705L15.294 19.6485C17.1221 18.2117 17.6185 15.3879 17.6185 13.8046V10.5091C17.6185 8.32683 14.7162 5.89641 11.801 5.89641C8.88664 5.89641 5.90739 8.32722 5.90739 10.5091V13.8046C5.90739 15.2442 6.51712 18.1566 8.36399 19.636L3.31834 22.3705C3.31834 22.3705 2 22.9574 2 23.6891V25.6668C2 26.3946 2.59137 26.9854 3.31834 26.9854H20.2126C20.9403 26.9854 21.5317 26.3946 21.5317 25.6668V23.6891C21.5317 22.9133 20.2126 22.3705 20.2126 22.3705L20.2126 22.3705ZM19.9693 25.4245H3.56252V24.029C3.67463 23.9475 3.83127 23.853 3.95471 23.7964C3.9914 23.7797 4.02812 23.7621 4.06288 23.7422L9.1089 21.0082C9.56905 20.7588 9.87412 20.2964 9.9206 19.7758C9.96709 19.2552 9.74951 18.7452 9.34171 18.4181C8.03157 17.3688 7.47025 15.0445 7.47025 13.8047V10.5091C7.47025 9.38797 9.58584 7.45745 11.8014 7.45745C14.058 7.45745 16.0564 9.36146 16.0564 10.5091V13.8047C16.0564 15.0273 15.6764 17.3618 14.3283 18.4213C14.1251 18.5811 13.9648 18.7888 13.8616 19.0257C13.7584 19.2626 13.7155 19.5214 13.7369 19.7789C13.7587 20.0363 13.8439 20.2842 13.985 20.5007C14.1261 20.7171 14.3187 20.8952 14.5455 21.0191L19.4642 23.7411C19.5076 23.7648 19.5627 23.7906 19.6084 23.8105C19.7236 23.8593 19.8654 23.9408 19.9693 24.0127V25.4245ZM25.6805 18.4841L20.6888 15.7621C22.5169 14.3253 23.0868 11.5015 23.0868 9.91826V6.62268C23.0868 4.44045 20.1115 1.98544 17.1963 1.98544C15.3018 1.98544 13.3647 3.01451 12.2374 4.33238C12.8803 4.37216 13.5893 4.37296 14.2018 4.56808C15.0248 3.9277 16.0662 3.54682 17.1963 3.54682C19.4529 3.54682 21.5243 5.47498 21.5243 6.62309V9.91867C21.5243 11.1413 21.0712 13.4757 19.7232 14.5352C19.52 14.6951 19.3596 14.9027 19.2564 15.1397C19.1532 15.3766 19.1104 15.6354 19.1318 15.8929C19.1535 16.1502 19.2388 16.3982 19.3799 16.6146C19.521 16.831 19.7135 17.0091 19.9404 17.1331L24.9321 19.855C24.9755 19.8788 25.0305 19.9045 25.0763 19.9244C25.1915 19.9732 25.3333 20.0548 25.4372 20.1266V21.5147H22.2833C22.7595 21.8737 22.9036 22.3873 23.0884 23.0756H25.6809C26.4086 23.0756 27 22.4848 27 21.757V19.8034C26.9996 19.0269 25.6805 18.484 25.6805 18.484L25.6805 18.4841Z" fill="#F1F3F4"/>
</g>
</svg>
